<svg width="32" height="32" viewBox="0 0 32 32" fill="none" xmlns="http://www.w3.org/2000/svg">
<path d="M18.6667 5.4668L16 8.00013" stroke="currentColor" stroke-width="2.5" stroke-linecap="round" stroke-linejoin="round"/>
<path d="M6.80002 10.6663L2.93335 9.59961" stroke="currentColor" stroke-width="2.5" stroke-linecap="round" stroke-linejoin="round"/>
<path d="M7.99989 16.0005L5.46655 18.6672" stroke="currentColor" stroke-width="2.5" stroke-linecap="round" stroke-linejoin="round"/>
<path d="M9.59985 2.93311L10.6665 6.79977" stroke="currentColor" stroke-width="2.5" stroke-linecap="round" stroke-linejoin="round"/>
<path d="M12.0494 12.92C11.9977 12.7982 11.9835 12.6638 12.0088 12.5339C12.034 12.404 12.0975 12.2846 12.1911 12.1911C12.2846 12.0975 12.404 12.034 12.5339 12.0088C12.6638 11.9835 12.7982 11.9977 12.92 12.0494L27.5867 18.0494C27.7172 18.1029 27.8274 18.1965 27.9014 18.3167C27.9754 18.4368 28.0093 18.5773 27.9983 18.718C27.9874 18.8586 27.932 18.9922 27.8403 19.0994C27.7486 19.2067 27.6253 19.282 27.488 19.3147L21.6894 20.7027C21.45 20.7599 21.2311 20.8822 21.057 21.0561C20.8828 21.23 20.7602 21.4487 20.7027 21.688L19.316 27.488C19.2837 27.6258 19.2084 27.7496 19.1011 27.8417C18.9937 27.9338 18.8598 27.9894 18.7188 28.0004C18.5777 28.0114 18.4369 27.9772 18.3165 27.9029C18.1962 27.8285 18.1026 27.7178 18.0494 27.5867L12.0494 12.92Z" stroke="currentColor" stroke-width="2.5" stroke-linecap="round" stroke-linejoin="round"/>
</svg>
