<svg width="10" height="10" viewBox="0 0 10 10" fill="none" xmlns="http://www.w3.org/2000/svg">
<path fill-rule="evenodd" clip-rule="evenodd" d="M9.14258 0.474887C8.83841 0.170817 8.42592 0 7.99583 0C7.56573 0 7.15324 0.170817 6.84907 0.474887L6.46682 0.857668L9.14312 3.53389L9.52483 3.15165C9.67548 3.00104 9.79498 2.82222 9.87651 2.62542C9.95804 2.42862 10 2.21768 10 2.00466C10 1.79164 9.95804 1.5807 9.87651 1.3839C9.79498 1.1871 9.67548 1.00828 9.52483 0.857668L9.14258 0.474887ZM8.37808 4.29838L5.70178 1.62215L0.787121 6.53721C0.679573 6.64478 0.604443 6.78042 0.570314 6.92865L0.0139677 9.33725C-0.00676197 9.42667 -0.00438418 9.51989 0.020877 9.60814C0.0461382 9.69638 0.0934511 9.77674 0.158358 9.84165C0.223264 9.90655 0.303627 9.95386 0.391874 9.97912C0.480121 10.0044 0.573347 10.0068 0.662767 9.98603L3.07198 9.43024C3.22001 9.39602 3.35546 9.3209 3.46288 9.21344L8.37808 4.29838Z" fill="currentColor"/>
</svg>
