<svg width="14" height="12" viewBox="0 0 14 12" fill="none" xmlns="http://www.w3.org/2000/svg">
<path fill-rule="evenodd" clip-rule="evenodd" d="M12.5498 0.0820957C12.722 0.00940435 12.9104 -0.0156664 13.0954 0.00949259C13.2805 0.0346516 13.4555 0.109121 13.6021 0.225149C13.7488 0.341177 13.8617 0.494523 13.9293 0.669225C13.9968 0.843927 14.0165 1.0336 13.9861 1.2185L12.4063 10.8332C12.2531 11.7606 11.2389 12.2925 10.3912 11.8305C9.6821 11.444 8.6289 10.8486 7.68158 10.2272C7.20792 9.91624 5.75699 8.92032 5.93531 8.21164C6.08855 7.6057 8.52651 5.3287 9.91963 3.97494C10.4664 3.44308 10.2171 3.13626 9.57135 3.62549C7.96787 4.84017 5.39338 6.68735 4.54219 7.20733C3.7913 7.6658 3.39983 7.74408 2.93174 7.6658C2.07776 7.52323 1.28577 7.30238 0.639364 7.0333C-0.234122 6.66988 -0.191632 5.46498 0.638667 5.11414L12.5498 0.0820957Z" fill="currentColor"/>
</svg>
