<svg width="20" height="20" viewBox="0 0 20 20" fill="none" xmlns="http://www.w3.org/2000/svg">
<path d="M15.8333 7.50004V5.00004C15.8333 4.55801 15.6577 4.13409 15.3451 3.82153C15.0326 3.50897 14.6087 3.33337 14.1666 3.33337H5.83329C5.39127 3.33337 4.96734 3.50897 4.65478 3.82153C4.34222 4.13409 4.16663 4.55801 4.16663 5.00004V7.50004" stroke="white" stroke-width="1.5" stroke-linecap="round" stroke-linejoin="round"/>
<path d="M2.5 13.3333C2.5 13.7754 2.67559 14.1993 2.98816 14.5118C3.30072 14.8244 3.72464 15 4.16667 15H15.8333C16.2754 15 16.6993 14.8244 17.0118 14.5118C17.3244 14.1993 17.5 13.7754 17.5 13.3333V9.16667C17.5 8.72464 17.3244 8.30072 17.0118 7.98816C16.6993 7.6756 16.2754 7.5 15.8333 7.5C15.3913 7.5 14.9674 7.6756 14.6548 7.98816C14.3423 8.30072 14.1667 8.72464 14.1667 9.16667V10.4167C14.1667 10.5272 14.1228 10.6332 14.0446 10.7113C13.9665 10.7894 13.8605 10.8333 13.75 10.8333H6.25C6.13949 10.8333 6.03351 10.7894 5.95537 10.7113C5.87723 10.6332 5.83333 10.5272 5.83333 10.4167V9.16667C5.83333 8.72464 5.65774 8.30072 5.34518 7.98816C5.03262 7.6756 4.60869 7.5 4.16667 7.5C3.72464 7.5 3.30072 7.6756 2.98816 7.98816C2.67559 8.30072 2.5 8.72464 2.5 9.16667V13.3333Z" stroke="white" stroke-width="1.5" stroke-linecap="round" stroke-linejoin="round"/>
<path d="M4.16663 15V16.6667" stroke="white" stroke-width="1.5" stroke-linecap="round" stroke-linejoin="round"/>
<path d="M15.8334 15V16.6667" stroke="white" stroke-width="1.5" stroke-linecap="round" stroke-linejoin="round"/>
</svg>
