<svg width="19" height="19" viewBox="0 0 19 19" fill="none" xmlns="http://www.w3.org/2000/svg">
<path d="M9.5 9.5V14.25" stroke="#3079D8" stroke-width="1.2" stroke-linecap="round" stroke-linejoin="round"/>
<path d="M3.22765 8.40355C3.17746 8.52387 3.15776 8.65471 3.1703 8.78447C3.18283 8.91423 3.22722 9.03889 3.29951 9.14737C3.37181 9.25585 3.46977 9.3448 3.58471 9.40632C3.69965 9.46784 3.82799 9.50002 3.95836 9.50001H15.0417C15.1721 9.50002 15.3004 9.46784 15.4153 9.40632C15.5303 9.3448 15.6282 9.25585 15.7005 9.14737C15.7728 9.03889 15.8172 8.91423 15.8298 8.78447C15.8423 8.65471 15.8226 8.52387 15.7724 8.40355L13.3364 2.55789C13.2163 2.26933 13.0133 2.0228 12.7533 1.84937C12.4932 1.67595 12.1876 1.58338 11.875 1.58334H7.12503C6.81253 1.58332 6.50701 1.67577 6.24695 1.84904C5.98689 2.02232 5.78392 2.26868 5.66361 2.55709L3.22765 8.40355Z" stroke="#3079D8" stroke-width="1.2" stroke-linecap="round" stroke-linejoin="round"/>
<path d="M6.33337 15.8333C6.33337 15.4134 6.50019 15.0107 6.79712 14.7137C7.09405 14.4168 7.49678 14.25 7.91671 14.25H11.0834C11.5033 14.25 11.906 14.4168 12.203 14.7137C12.4999 15.0107 12.6667 15.4134 12.6667 15.8333V16.625C12.6667 16.835 12.5833 17.0363 12.4348 17.1848C12.2864 17.3333 12.085 17.4167 11.875 17.4167H7.12504C6.91508 17.4167 6.71371 17.3333 6.56525 17.1848C6.41678 17.0363 6.33337 16.835 6.33337 16.625V15.8333Z" stroke="#3079D8" stroke-width="1.2" stroke-linecap="round" stroke-linejoin="round"/>
</svg>
