<svg width="0" height="0" class="hidden">
  <symbol fill="none" xmlns="http://www.w3.org/2000/svg" viewBox="0 0 5 3" id="ic_arr_ver">
    <path d="M0.5 0.5L2.5 2.5L4.5 0.5" stroke="currentColor" stroke-linecap="round" stroke-linejoin="round"></path>
  </symbol>
  <symbol fill="none" xmlns="http://www.w3.org/2000/svg" viewBox="0 0 6 6" id="ic_arrow_hor">
    <path d="M0.5 3H5.5M5.5 3L2.80769 0.500004M5.5 3L2.80769 5.5" stroke="currentColor" stroke-linecap="round" stroke-linejoin="round"></path>
  </symbol>
  <symbol fill="none" xmlns="http://www.w3.org/2000/svg" viewBox="0 0 9 9" id="ic_arrow_ver">
    <path d="M4.1001 0.600006L4.1001 7.60001M4.1001 7.60001L7.6001 3.83078M4.1001 7.60001L0.600098 3.83078" stroke="currentColor" stroke-width="1.2" stroke-linecap="round" stroke-linejoin="round"></path>
  </symbol>
  <symbol fill="none" xmlns="http://www.w3.org/2000/svg" viewBox="0 0 15 18" id="ic_calc">
    <path d="M11.95 0.75H2.35C1.46634 0.75 0.75 1.46634 0.75 2.35V15.15C0.75 16.0337 1.46634 16.75 2.35 16.75H11.95C12.8337 16.75 13.55 16.0337 13.55 15.15V2.35C13.55 1.46634 12.8337 0.75 11.95 0.75Z" stroke="currentColor" stroke-width="1.5" stroke-linecap="round" stroke-linejoin="round"></path>
    <path d="M3.95044 3.95001H10.3504" stroke="currentColor" stroke-width="1.5" stroke-linecap="round" stroke-linejoin="round"></path>
    <path d="M10.3503 10.35V13.55" stroke="currentColor" stroke-width="1.5" stroke-linecap="round" stroke-linejoin="round"></path>
    <path d="M10.3503 7.15002H10.3583" stroke="currentColor" stroke-width="1.5" stroke-linecap="round" stroke-linejoin="round"></path>
    <path d="M7.15039 7.15002H7.15839" stroke="currentColor" stroke-width="1.5" stroke-linecap="round" stroke-linejoin="round"></path>
    <path d="M3.95044 7.15002H3.95844" stroke="currentColor" stroke-width="1.5" stroke-linecap="round" stroke-linejoin="round"></path>
    <path d="M7.15039 10.35H7.15839" stroke="currentColor" stroke-width="1.5" stroke-linecap="round" stroke-linejoin="round"></path>
    <path d="M3.95044 10.35H3.95844" stroke="currentColor" stroke-width="1.5" stroke-linecap="round" stroke-linejoin="round"></path>
    <path d="M7.15039 13.55H7.15839" stroke="currentColor" stroke-width="1.5" stroke-linecap="round" stroke-linejoin="round"></path>
    <path d="M3.95044 13.55H3.95844" stroke="currentColor" stroke-width="1.5" stroke-linecap="round" stroke-linejoin="round"></path>
  </symbol>
  <symbol fill="none" xmlns="http://www.w3.org/2000/svg" viewBox="0 0 11 12" id="ic_calendar">
    <path d="M3.13867 0.5V2.61111" stroke="currentColor" stroke-linecap="round" stroke-linejoin="round"></path>
    <path d="M7.36133 0.5V2.61111" stroke="currentColor" stroke-linecap="round" stroke-linejoin="round"></path>
    <path d="M8.94444 1.55554H1.55556C0.972588 1.55554 0.5 2.02813 0.5 2.6111V9.99999C0.5 10.583 0.972588 11.0555 1.55556 11.0555H8.94444C9.52741 11.0555 10 10.583 10 9.99999V2.6111C10 2.02813 9.52741 1.55554 8.94444 1.55554Z" stroke="currentColor" stroke-linecap="round" stroke-linejoin="round"></path>
    <path d="M0.5 4.72217H10" stroke="currentColor" stroke-linecap="round" stroke-linejoin="round"></path>
  </symbol>
  <symbol fill="none" xmlns="http://www.w3.org/2000/svg" viewBox="0 0 12 8" id="ic_check">
    <path d="M1 3.66667L4.57143 7L11 1" stroke="currentColor" stroke-width="2" stroke-linecap="round" stroke-linejoin="round"></path>
  </symbol>
  <symbol fill="none" xmlns="http://www.w3.org/2000/svg" viewBox="0 0 32 32" id="ic_click">
    <path d="M18.6667 5.4668L16 8.00013" stroke="currentColor" stroke-width="2.5" stroke-linecap="round" stroke-linejoin="round"></path>
    <path d="M6.80002 10.6663L2.93335 9.59961" stroke="currentColor" stroke-width="2.5" stroke-linecap="round" stroke-linejoin="round"></path>
    <path d="M7.99989 16.0005L5.46655 18.6672" stroke="currentColor" stroke-width="2.5" stroke-linecap="round" stroke-linejoin="round"></path>
    <path d="M9.59985 2.93311L10.6665 6.79977" stroke="currentColor" stroke-width="2.5" stroke-linecap="round" stroke-linejoin="round"></path>
    <path d="M12.0494 12.92C11.9977 12.7982 11.9835 12.6638 12.0088 12.5339C12.034 12.404 12.0975 12.2846 12.1911 12.1911C12.2846 12.0975 12.404 12.034 12.5339 12.0088C12.6638 11.9835 12.7982 11.9977 12.92 12.0494L27.5867 18.0494C27.7172 18.1029 27.8274 18.1965 27.9014 18.3167C27.9754 18.4368 28.0093 18.5773 27.9983 18.718C27.9874 18.8586 27.932 18.9922 27.8403 19.0994C27.7486 19.2067 27.6253 19.282 27.488 19.3147L21.6894 20.7027C21.45 20.7599 21.2311 20.8822 21.057 21.0561C20.8828 21.23 20.7602 21.4487 20.7027 21.688L19.316 27.488C19.2837 27.6258 19.2084 27.7496 19.1011 27.8417C18.9937 27.9338 18.8598 27.9894 18.7188 28.0004C18.5777 28.0114 18.4369 27.9772 18.3165 27.9029C18.1962 27.8285 18.1026 27.7178 18.0494 27.5867L12.0494 12.92Z" stroke="currentColor" stroke-width="2.5" stroke-linecap="round" stroke-linejoin="round"></path>
  </symbol>
  <symbol fill="none" xmlns="http://www.w3.org/2000/svg" viewBox="0 0 22 22" id="ic_close">
    <path d="M1 21L11 11M21 1L11 11M11 11L21 21L1 1" stroke="currentColor" stroke-width="2" stroke-linecap="round" stroke-linejoin="round"></path>
  </symbol>
  <symbol fill="none" xmlns="http://www.w3.org/2000/svg" viewBox="0 0 6 8" id="ic_download">
    <path d="M3 0.5L3 5.5M3 5.5L5.5 2.80769M3 5.5L0.5 2.80769" stroke="currentColor" stroke-linecap="round" stroke-linejoin="round"></path>
    <path d="M5.5 7.5L2.99958 7.5L0.5 7.5" stroke="currentColor" stroke-linecap="round" stroke-linejoin="round"></path>
  </symbol>
  <symbol fill="none" xmlns="http://www.w3.org/2000/svg" viewBox="0 0 10 10" id="ic_edit">
    <path fill-rule="evenodd" clip-rule="evenodd" d="M9.14258 0.474887C8.83841 0.170817 8.42592 0 7.99583 0C7.56573 0 7.15324 0.170817 6.84907 0.474887L6.46682 0.857668L9.14312 3.53389L9.52483 3.15165C9.67548 3.00104 9.79498 2.82222 9.87651 2.62542C9.95804 2.42862 10 2.21768 10 2.00466C10 1.79164 9.95804 1.5807 9.87651 1.3839C9.79498 1.1871 9.67548 1.00828 9.52483 0.857668L9.14258 0.474887ZM8.37808 4.29838L5.70178 1.62215L0.787121 6.53721C0.679573 6.64478 0.604443 6.78042 0.570314 6.92865L0.0139677 9.33725C-0.00676197 9.42667 -0.00438418 9.51989 0.020877 9.60814C0.0461382 9.69638 0.0934511 9.77674 0.158358 9.84165C0.223264 9.90655 0.303627 9.95386 0.391874 9.97912C0.480121 10.0044 0.573347 10.0068 0.662767 9.98603L3.07198 9.43024C3.22001 9.39602 3.35546 9.3209 3.46288 9.21344L8.37808 4.29838Z" fill="currentColor"></path>
  </symbol>
  <symbol fill="none" xmlns="http://www.w3.org/2000/svg" viewBox="0 0 12 12" id="ic_max">
    <path fill-rule="evenodd" clip-rule="evenodd" d="M4.51049 0.193052C2.71947 0.674064 1.25056 1.87375 0.495858 3.47174C0.106205 4.29643 0.0570056 4.54209 0.0129709 5.88141C-0.0297047 7.18101 0.0179995 7.60156 0.384412 9.15264C0.61573 10.1316 0.804916 11.1244 0.804916 11.3591C0.804916 11.6888 0.881705 11.8146 1.14347 11.914C1.3298 11.9846 1.55908 12.0187 1.65313 11.9896C1.74731 11.9608 1.98774 11.9015 2.18752 11.858C2.38731 11.8145 2.7279 11.6302 2.9444 11.4486L3.338 11.1182L4.14408 11.5275C4.90979 11.9163 5.01852 11.9343 6.31714 11.8892C7.54712 11.8465 7.77857 11.7952 8.6276 11.3783C11.4504 9.99225 12.6921 6.84004 11.6149 3.7944C11.1924 2.60014 9.94932 1.23018 8.73388 0.619428C7.47889 -0.0112559 5.8738 -0.173265 4.51049 0.193052ZM6.86213 3.03045C8.22001 3.4346 9.09826 4.59672 9.09241 5.9816C9.08344 8.13436 6.85751 9.66768 4.91618 8.85859C4.45749 8.66743 4.37852 8.66946 3.97963 8.8838C3.38312 9.20416 3.18673 9.0107 2.9758 7.89534C2.63263 6.08125 3.04742 4.47851 4.09067 3.58766C4.92841 2.87238 5.76548 2.70413 6.86213 3.03045Z" fill="currentColor"></path>
  </symbol>
  <symbol fill="none" xmlns="http://www.w3.org/2000/svg" viewBox="0 0 21 16" id="ic_menu">
    <rect width="21" height="2" rx="1" fill="currentColor"></rect>
    <rect y="7" width="21" height="2" rx="1" fill="currentColor"></rect>
    <rect y="14" width="21" height="2" rx="1" fill="currentColor"></rect>
  </symbol>
  <symbol fill="none" xmlns="http://www.w3.org/2000/svg" viewBox="0 0 24 3" id="ic_minus">
    <path d="M11.773 1.5H22.0459H1.5" stroke="currentColor" stroke-width="3" stroke-linecap="round" stroke-linejoin="round"></path>
  </symbol>
  <symbol fill="none" xmlns="http://www.w3.org/2000/svg" viewBox="0 0 24 24" id="ic_plus">
    <path d="M11.7729 22.0459V11.7729M11.7729 1.5V11.7729M11.7729 11.7729H22.0459H1.5" stroke="currentColor" stroke-width="3" stroke-linecap="round" stroke-linejoin="round"></path>
  </symbol>
  <symbol fill="none" xmlns="http://www.w3.org/2000/svg" viewBox="0 0 14 12" id="ic_tg">
    <path fill-rule="evenodd" clip-rule="evenodd" d="M12.5498 0.0820957C12.722 0.00940435 12.9104 -0.0156664 13.0954 0.00949259C13.2805 0.0346516 13.4555 0.109121 13.6021 0.225149C13.7488 0.341177 13.8617 0.494523 13.9293 0.669225C13.9968 0.843927 14.0165 1.0336 13.9861 1.2185L12.4063 10.8332C12.2531 11.7606 11.2389 12.2925 10.3912 11.8305C9.6821 11.444 8.6289 10.8486 7.68158 10.2272C7.20792 9.91624 5.75699 8.92032 5.93531 8.21164C6.08855 7.6057 8.52651 5.3287 9.91963 3.97494C10.4664 3.44308 10.2171 3.13626 9.57135 3.62549C7.96787 4.84017 5.39338 6.68735 4.54219 7.20733C3.7913 7.6658 3.39983 7.74408 2.93174 7.6658C2.07776 7.52323 1.28577 7.30238 0.639364 7.0333C-0.234122 6.66988 -0.191632 5.46498 0.638667 5.11414L12.5498 0.0820957Z" fill="currentColor"></path>
  </symbol>
  <symbol fill="none" xmlns="http://www.w3.org/2000/svg" viewBox="0 0 10 10" id="ic_write">
    <path fill-rule="evenodd" clip-rule="evenodd" d="M9.14258 0.474887C8.83841 0.170817 8.42592 0 7.99583 0C7.56573 0 7.15324 0.170817 6.84907 0.474887L6.46682 0.857668L9.14312 3.53389L9.52483 3.15165C9.67548 3.00104 9.79498 2.82222 9.87651 2.62542C9.95804 2.42862 10 2.21768 10 2.00466C10 1.79164 9.95804 1.5807 9.87651 1.3839C9.79498 1.1871 9.67548 1.00828 9.52483 0.857668L9.14258 0.474887ZM8.37808 4.29838L5.70178 1.62215L0.787121 6.53721C0.679573 6.64478 0.604443 6.78042 0.570314 6.92865L0.0139677 9.33725C-0.00676197 9.42667 -0.00438418 9.51989 0.020877 9.60814C0.0461382 9.69638 0.0934511 9.77674 0.158358 9.84165C0.223264 9.90655 0.303627 9.95386 0.391874 9.97912C0.480121 10.0044 0.573347 10.0068 0.662767 9.98603L3.07198 9.43024C3.22001 9.39602 3.35546 9.3209 3.46288 9.21344L8.37808 4.29838Z" fill="currentColor"></path>
  </symbol>
</svg>